<?xml version="1.0" encoding="utf-8"?>
<!-- Generator: Adobe Illustrator 24.2.3, SVG Export Plug-In . SVG Version: 6.00 Build 0)  -->
<svg version="1.1" id="Layer_1" xmlns="http://www.w3.org/2000/svg" xmlns:xlink="http://www.w3.org/1999/xlink" x="0px" y="0px"
	 viewBox="0 0 364 500" style="enable-background:new 0 0 364 500;" xml:space="preserve">
<style type="text/css">
	.st0{fill:#61C7CD;}
	.st1{clip-path:url(#SVGID_2_);fill:#61C7CD;}
	.st2{clip-path:url(#SVGID_4_);fill:#61C7CD;}
	.st3{clip-path:url(#SVGID_6_);fill:#61C7CD;}
</style>
<path class="st0" d="M331.51,142.22c0,8.23-6.69,14.92-14.96,14.92c-4.17,0-7.94-1.69-10.66-4.47H234.4l-0.01-0.01h-13.77v0.01
	H22.11c1.43-7.88,3.42-15.56,5.96-22.98C49.94,65.15,111.1,18.56,182.94,18.56c49.39,0,93.69,22.05,123.71,56.81
	c7.36,0.9,13.09,7.21,13.09,14.83c0,8.27-6.69,14.96-14.96,14.96c-8.14,0-14.77-6.55-14.92-14.67
	C264.01,60.36,225.7,41.2,182.94,41.2c-59.17,0-109.92,36.68-130.75,88.49h21.76l0.03-0.03h146.64v0.01h13.77l0.01-0.01h74.03
	c2.34-1.52,5.14-2.4,8.12-2.4C324.82,127.26,331.51,133.95,331.51,142.22z"/>
<path class="st0" d="M344.5,217.91c0,1.02-0.09,2.02-0.29,2.98v0.03c-0.15,4.5-2.31,8.47-5.55,11.1
	c-5.9,18.25-15.01,35.43-27.22,50.93c-15.13,19.19-32.94,45.12-47.84,69.71v57.39h-67.35v-22.66h44.71v-41.03l1.61-2.69
	c15.71-26.14,34.78-54.09,51.08-74.73c9.93-12.62,17.49-26.52,22.55-41.27c-1.2-2.16-1.87-4.64-1.87-7.3c0-1.02,0.12-2.04,0.29-3.01
	c0.26-8,6.86-14.4,14.92-14.4C337.81,202.96,344.5,209.65,344.5,217.91z"/>
<g>
	<defs>
		<path id="SVGID_1_" d="M309.76,129.67c2.14,1.99,4.2,4.06,6.2,6.17c-0.73-2.08-1.5-4.14-2.32-6.17H309.76z"/>
	</defs>
	<use xlink:href="#SVGID_1_"  style="overflow:visible;fill:#61C7CD;"/>
	<clipPath id="SVGID_2_">
		<use xlink:href="#SVGID_1_"  style="overflow:visible;"/>
	</clipPath>
	
		<rect x="308.54" y="128.43" transform="matrix(0.8037 -0.5951 0.5951 0.8037 -17.5738 212.2458)" class="st1" width="8.66" height="8.65"/>
</g>
<g>
	<defs>
		<path id="SVGID_3_" d="M291.87,152.66h28.82c0-0.01,0-0.02-0.01-0.03L291.87,152.66z"/>
	</defs>
	<use xlink:href="#SVGID_3_"  style="overflow:visible;fill:#61C7CD;"/>
	<clipPath id="SVGID_4_">
		<use xlink:href="#SVGID_3_"  style="overflow:visible;"/>
	</clipPath>
	
		<rect x="294.69" y="144.06" transform="matrix(0.8037 -0.5951 0.5951 0.8037 -30.7035 212.2303)" class="st2" width="23.17" height="17.17"/>
</g>
<g>
	<defs>
		<path id="SVGID_5_" d="M240.93,428.8c-31.22,35.54-87.58,35.54-118.8,0c-5.3-5.94-13.33-9.43-19.08-6.3
			c-5.73,3.08-5.79,13.83,1.4,21.99c40.51,46.12,113.66,46.12,154.17,0c7.19-8.16,7.12-18.91,1.4-21.99
			c-1.48-0.81-3.11-1.17-4.81-1.17C250.31,421.33,244.86,424.39,240.93,428.8"/>
	</defs>
	<use xlink:href="#SVGID_5_"  style="overflow:visible;fill:#61C7CD;"/>
	<clipPath id="SVGID_6_">
		<use xlink:href="#SVGID_5_"  style="overflow:visible;"/>
	</clipPath>
	<rect x="97.25" y="419.37" class="st3" width="168.55" height="71.24"/>
</g>
<path class="st0" d="M258.61,444.5c-25.26,28.75-63.21,39.58-98.03,32.47l23-21.54c21.21-0.54,42.23-9.42,57.35-26.63
	c3.93-4.41,9.38-7.47,14.27-7.47h0.01c1.69,0,3.32,0.37,4.8,1.18C265.73,425.59,265.8,436.34,258.61,444.5z"/>
<path class="st0" d="M258.61,444.5c-25.26,28.75-63.21,39.58-98.03,32.47c-21.02-4.29-40.89-15.11-56.14-32.47
	c-7.19-8.16-7.12-18.91-1.4-21.99c1.48-0.81,3.11-1.18,4.81-1.18c4.89,0,10.34,3.06,14.27,7.47c16.1,18.33,38.89,27.2,61.46,26.63
	c21.21-0.54,42.23-9.42,57.35-26.63c3.93-4.41,9.38-7.47,14.27-7.47h0.01c1.69,0,3.32,0.37,4.8,1.18
	C265.73,425.59,265.8,436.34,258.61,444.5z"/>
<rect x="145.47" y="387.39" class="st0" width="22.93" height="22.66"/>
<path class="st0" d="M19.48,184.27c0.09,6.75,0.58,13.4,1.46,19.95c3.86,28.68,15.25,55.55,33.5,78.71
	c16.79,21.32,33.03,44.92,46.99,68.34v58.79h66.97V184.27H19.48z M124.06,387.39V345.1l-1.58-2.66
	c-14.81-25.2-32.21-50.61-50.26-73.54c-15.07-19.13-24.71-41.15-28.42-64.69h101.66v183.17H124.06z"/>
<path class="st0" d="M294.18,194.17c0,8.24-6.69,14.92-14.95,14.92c-4.38,0-8.32-1.86-11.04-4.87h-49.04v205.83h-22.89V204.22h-0.18
	v-19.98h71.99c2.72-3.09,6.72-5.02,11.16-5.02C287.49,179.22,294.18,185.91,294.18,194.17z"/>
</svg>
